<!DOCTYPE svg PUBLIC "-//W3C//DTD SVG 1.1//EN" "http://www.w3.org/Graphics/SVG/1.1/DTD/svg11.dtd">
<!-- Uploaded to: SVG Repo, www.svgrepo.com, Transformed by: SVG Repo Mixer Tools -->
<svg width="800px" height="800px" viewBox="0 0 24.00 24.00" xmlns="http://www.w3.org/2000/svg" fill="#000000" stroke="#000000">
<g id="SVGRepo_bgCarrier" stroke-width="0"/>
<g id="SVGRepo_tracerCarrier" stroke-linecap="round" stroke-linejoin="round" stroke="#CCCCCC" stroke-width="0.9120000000000001"> <defs> <style>.cls-1{fill:none;stroke:#be185d;stroke-miterlimit:10;stroke-width:0.9120000000000001;}</style> </defs> <g id="roll_brush" data-name="roll brush"> <path class="cls-1" d="M1.45,15.29A11.73,11.73,0,0,1,13.17,3.56a9.38,9.38,0,0,1,9.38,9.38,7.5,7.5,0,0,1-7.5,7.5,6,6,0,0,1-6-6,4.8,4.8,0,0,1,4.8-4.8,3.84,3.84,0,0,1,3.84,3.84,3.07,3.07,0,0,1-3.07,3.07,2.46,2.46,0,0,1-2.46-2.45,2,2,0,0,1,2-2A1.57,1.57,0,0,1,15.7,13.7"/> </g> </g>
<g id="SVGRepo_iconCarrier"> <defs> <style>.cls-1{fill:none;stroke:#be185d;stroke-miterlimit:10;stroke-width:0.9120000000000001;}</style> </defs> <g id="roll_brush" data-name="roll brush"> <path class="cls-1" d="M1.45,15.29A11.73,11.73,0,0,1,13.17,3.56a9.38,9.38,0,0,1,9.38,9.38,7.5,7.5,0,0,1-7.5,7.5,6,6,0,0,1-6-6,4.8,4.8,0,0,1,4.8-4.8,3.84,3.84,0,0,1,3.84,3.84,3.07,3.07,0,0,1-3.07,3.07,2.46,2.46,0,0,1-2.46-2.45,2,2,0,0,1,2-2A1.57,1.57,0,0,1,15.7,13.7"/> </g> </g>
</svg>